# xmcd CD database file
#
# Track frame offsets:
#	150
#	37647
#	68375
#	91745
#	123585
#	154750
#
# Disc length: 2450 seconds
#
# Revision: 0
# Processed by: cddbd v1.5.1PL0 Copyright (c) Steve Scherf et al.
# Submitted via: CDex 1.51
#
DISCID=38099006
DTITLE=Hank Mobley - The Turnaround
DYEAR=1900
DGENRE=Jazz
TTITLE0=The Turnaround
TTITLE1=East Of The Village
TTITLE2=The Good Life
TTITLE3=Straight Ahead
TTITLE4=My Sin
TTITLE5=Pat 'N Chat
EXTD=
EXTT0=
EXTT1=
EXTT2=
EXTT3=
EXTT4=
EXTT5=
PLAYORDER=
